<svg width="26" height="26" viewBox="0 0 26 26" fill="none" xmlns="http://www.w3.org/2000/svg">
<path d="M25.4526 11.7L14.3 0.547369C13.9579 0.205263 13.4789 0 13 0C12.5211 0 12.0421 0.205263 11.7 0.547369L9.30526 2.94211L12.1105 5.74737C12.3842 5.61053 12.6579 5.54211 13 5.54211C14.1632 5.54211 15.0526 6.43158 15.0526 7.59474C15.0526 7.93684 14.9842 8.21053 14.8474 8.48421L17.5842 11.2211C17.8579 11.0842 18.1316 11.0158 18.4737 11.0158C19.6368 11.0158 20.5263 11.9053 20.5263 13.0684C20.5263 14.2316 19.6368 15.1211 18.4737 15.1211C17.3105 15.1211 16.4211 14.2316 16.4211 13.0684C16.4211 12.7263 16.4895 12.4526 16.6263 12.1789L13.8895 9.44211C13.8211 9.44211 13.7526 9.51053 13.6842 9.51053V16.6263C14.5053 16.9 15.0526 17.6526 15.0526 18.5421C15.0526 19.7053 14.1632 20.5947 13 20.5947C11.8368 20.5947 10.9474 19.7053 10.9474 18.5421C10.9474 17.6526 11.4947 16.9 12.3158 16.6263V9.44211C11.4947 9.16842 10.9474 8.41579 10.9474 7.52632C10.9474 7.18421 11.0158 6.91053 11.1526 6.63684L8.34737 3.83158L0.547369 11.7C0.205263 12.0421 0 12.5211 0 13C0 13.4789 0.205263 13.9579 0.547369 14.3L11.7 25.4526C12.0421 25.7947 12.5211 26 13 26C13.4789 26 13.9579 25.7947 14.3 25.4526L25.4526 14.3C25.7947 13.9579 26 13.4789 26 13C26 12.5211 25.7947 12.0421 25.4526 11.7Z" fill="#F4511E"/>
</svg>
