<svg width="124" height="49" viewBox="0 0 124 49" fill="none" xmlns="http://www.w3.org/2000/svg">
<g clip-path="url(#clip0_215_2)">
<path d="M10.08 21.84H23.08V27.76H10.08V21.84ZM10.64 32.88H25.28V39H2.8V11H24.76V17.12H10.64V32.88ZM29.675 39V11H43.995C47.675 11 50.4217 11.68 52.235 13.04C54.0483 14.3733 54.955 16.1333 54.955 18.32C54.955 19.76 54.5683 21.0267 53.795 22.12C53.0483 23.1867 51.9817 24.04 50.595 24.68C49.235 25.2933 47.6083 25.6 45.715 25.6L46.515 23.68C48.4883 23.68 50.2083 23.9867 51.675 24.6C53.1417 25.1867 54.275 26.0533 55.075 27.2C55.9017 28.32 56.315 29.6933 56.315 31.32C56.315 33.7467 55.3283 35.64 53.355 37C51.4083 38.3333 48.555 39 44.795 39H29.675ZM37.515 33.28H44.155C45.515 33.28 46.5417 33.0533 47.235 32.6C47.955 32.12 48.315 31.4 48.315 30.44C48.315 29.48 47.955 28.7733 47.235 28.32C46.5417 27.84 45.515 27.6 44.155 27.6H36.955V22.12H42.955C44.2883 22.12 45.2883 21.8933 45.955 21.44C46.6217 20.9867 46.955 20.3067 46.955 19.4C46.955 18.4933 46.6217 17.8267 45.955 17.4C45.2883 16.9467 44.2883 16.72 42.955 16.72H37.515V33.28ZM70.2572 39.56C67.9639 39.56 65.7505 39.28 63.6172 38.72C61.5105 38.1333 59.7905 37.3867 58.4572 36.48L61.0572 30.64C62.3105 31.44 63.7505 32.1067 65.3772 32.64C67.0305 33.1467 68.6705 33.4 70.2972 33.4C71.3905 33.4 72.2705 33.3067 72.9372 33.12C73.6039 32.9067 74.0839 32.64 74.3772 32.32C74.6972 31.9733 74.8572 31.5733 74.8572 31.12C74.8572 30.48 74.5639 29.9733 73.9772 29.6C73.3905 29.2267 72.6305 28.92 71.6972 28.68C70.7639 28.44 69.7239 28.2 68.5772 27.96C67.4572 27.72 66.3239 27.4133 65.1772 27.04C64.0572 26.6667 63.0305 26.1867 62.0972 25.6C61.1639 24.9867 60.4039 24.2 59.8172 23.24C59.2305 22.2533 58.9372 21.0133 58.9372 19.52C58.9372 17.84 59.3905 16.32 60.2972 14.96C61.2305 13.6 62.6172 12.5067 64.4572 11.68C66.2972 10.8533 68.5905 10.44 71.3372 10.44C73.1772 10.44 74.9772 10.6533 76.7372 11.08C78.5239 11.48 80.1105 12.08 81.4972 12.88L79.0572 18.76C77.7239 18.04 76.4039 17.5067 75.0972 17.16C73.7905 16.7867 72.5239 16.6 71.2972 16.6C70.2039 16.6 69.3239 16.72 68.6572 16.96C67.9905 17.1733 67.5105 17.4667 67.2172 17.84C66.9239 18.2133 66.7772 18.64 66.7772 19.12C66.7772 19.7333 67.0572 20.2267 67.6172 20.6C68.2039 20.9467 68.9639 21.24 69.8972 21.48C70.8572 21.6933 71.8972 21.92 73.0172 22.16C74.1639 22.4 75.2972 22.7067 76.4172 23.08C77.5639 23.4267 78.6039 23.9067 79.5372 24.52C80.4705 25.1067 81.2172 25.8933 81.7772 26.88C82.3639 27.84 82.6572 29.0533 82.6572 30.52C82.6572 32.1467 82.1905 33.6533 81.2572 35.04C80.3505 36.4 78.9772 37.4933 77.1372 38.32C75.3239 39.1467 73.0305 39.56 70.2572 39.56Z" fill="white"/>
<path d="M86 39.08C85.7733 39.08 85.5733 39 85.4 38.84C85.24 38.6667 85.16 38.46 85.16 38.22C85.16 37.98 85.24 37.78 85.4 37.62C85.5733 37.46 85.7733 37.38 86 37.38C86.2267 37.38 86.42 37.46 86.58 37.62C86.7533 37.78 86.84 37.98 86.84 38.22C86.84 38.46 86.7533 38.6667 86.58 38.84C86.42 39 86.2267 39.08 86 39.08ZM93.8119 39.08C92.8385 39.08 91.9585 38.86 91.1719 38.42C90.3985 37.9667 89.7852 37.34 89.3319 36.54C88.8785 35.74 88.6519 34.82 88.6519 33.78C88.6519 32.7267 88.8785 31.8067 89.3319 31.02C89.7852 30.22 90.3985 29.6 91.1719 29.16C91.9585 28.7067 92.8385 28.48 93.8119 28.48C94.7319 28.48 95.5585 28.6933 96.2919 29.12C97.0385 29.5467 97.6252 30.1533 98.0519 30.94C98.4919 31.7267 98.7119 32.6733 98.7119 33.78C98.7119 34.86 98.4985 35.8 98.0719 36.6C97.6452 37.4 97.0585 38.0133 96.3119 38.44C95.5785 38.8667 94.7452 39.08 93.8119 39.08ZM93.8719 38.18C94.6719 38.18 95.3852 38 96.0119 37.64C96.6519 37.2667 97.1519 36.7467 97.5119 36.08C97.8852 35.4133 98.0719 34.6467 98.0719 33.78C98.0719 32.9 97.8852 32.1333 97.5119 31.48C97.1519 30.8133 96.6519 30.3 96.0119 29.94C95.3852 29.5667 94.6719 29.38 93.8719 29.38C93.0719 29.38 92.3519 29.5667 91.7119 29.94C91.0852 30.3 90.5852 30.8133 90.2119 31.48C89.8519 32.1333 89.6719 32.9 89.6719 33.78C89.6719 34.6467 89.8519 35.4133 90.2119 36.08C90.5852 36.7467 91.0852 37.2667 91.7119 37.64C92.3519 38 93.0719 38.18 93.8719 38.18ZM98.0919 39V35.58L98.2719 33.76L98.0719 31.94V24.16H99.0719V39H98.0919ZM107.528 39.08C106.475 39.08 105.541 38.8533 104.728 38.4C103.928 37.9467 103.295 37.32 102.828 36.52C102.375 35.72 102.148 34.8067 102.148 33.78C102.148 32.74 102.361 31.8267 102.788 31.04C103.228 30.24 103.828 29.6133 104.588 29.16C105.348 28.7067 106.201 28.48 107.148 28.48C108.095 28.48 108.941 28.7 109.688 29.14C110.448 29.58 111.041 30.2 111.468 31C111.908 31.7867 112.128 32.7 112.128 33.74C112.128 33.78 112.121 33.8267 112.108 33.88C112.108 33.92 112.108 33.9667 112.108 34.02H102.888V33.24H111.568L111.168 33.62C111.181 32.8067 111.008 32.08 110.648 31.44C110.301 30.7867 109.828 30.28 109.228 29.92C108.628 29.5467 107.935 29.36 107.148 29.36C106.375 29.36 105.681 29.5467 105.068 29.92C104.468 30.28 103.995 30.7867 103.648 31.44C103.301 32.08 103.128 32.8133 103.128 33.64V33.82C103.128 34.6733 103.315 35.4333 103.688 36.1C104.075 36.7533 104.601 37.2667 105.268 37.64C105.935 38 106.695 38.18 107.548 38.18C108.215 38.18 108.835 38.06 109.408 37.82C109.995 37.58 110.488 37.2133 110.888 36.72L111.468 37.38C111.015 37.94 110.441 38.3667 109.748 38.66C109.068 38.94 108.328 39.08 107.528 39.08ZM117.666 39L112.966 28.56H114.026L118.426 38.44H117.946L122.386 28.56H123.406L118.686 39H117.666Z" fill="white"/>
</g>
<defs>
<clipPath id="clip0_215_2">
<rect width="124" height="49" fill="white"/>
</clipPath>
</defs>
</svg>
