<svg width="25" height="25" viewBox="0 0 25 25" fill="none" xmlns="http://www.w3.org/2000/svg">
<path d="M21.3542 2.60425H3.64587L5.20837 20.3126L12.5 22.3959L19.7917 20.3126L21.3542 2.60425Z" fill="#E65100"/>
<path d="M12.5 4.16675V20.7813L18.3333 19.1147L19.6354 4.16675H12.5Z" fill="#FF6D00"/>
<path d="M13 13.25V11.1667H17.4792L17.1146 17.1562L13 18.5104V16.3229L15.1354 15.5938L15.2917 13.25H13ZM17.6354 9.08333L17.7917 7H13V9.08333H17.6354Z" fill="white"/>
<path d="M12.5 16.0937V18.2812L8.38538 16.927L8.17704 14.0624H10.2604L10.3645 15.3645L12.5 16.0937ZM9.94788 8.85409H12.5V6.77075H7.76038L8.12496 13.0208H12.5V10.9374H10.1041L9.94788 8.85409Z" fill="#EEEEEE"/>
</svg>
