<svg width="26" height="26" viewBox="0 0 26 26" fill="none" xmlns="http://www.w3.org/2000/svg">
<path d="M22.2083 2.70825H3.79163L5.41663 21.1249L13 23.2916L20.5833 21.1249L22.2083 2.70825Z" fill="#0277BD"/>
<path d="M13 4.33325V21.6124L19.0667 19.8791L20.4208 4.33325H13Z" fill="#039BE5"/>
<path d="M17.9292 7.04175H13V9.20841H15.6542L15.4917 11.3751H13V13.5417H15.3833L15.2208 15.9792L13 16.7376V19.0126L17.2792 17.6042L17.6583 11.3751L17.9292 7.04175Z" fill="white"/>
<path d="M13.0001 7.04175V9.20841H8.17922L8.01672 7.04175H13.0001ZM10.5084 11.3751L10.6167 13.5417H13.0001V11.3751H10.5084ZM10.7251 14.6251H8.55839L8.72089 17.6042L13.0001 19.0126V16.7376L10.7792 15.9792L10.7251 14.6251Z" fill="#EEEEEE"/>
</svg>
