<svg width="10" height="10" viewBox="0 0 10 10" fill="none" xmlns="http://www.w3.org/2000/svg">
<path d="M5 2.00098C3.66667 2.00098 2.83333 2.66743 2.5 4.00035C3 3.33389 3.58333 3.0841 4.25 3.25056C4.63042 3.34556 4.90229 3.6216 5.20333 3.92702C5.69333 4.42431 6.26062 5.00014 7.5 5.00014C8.83333 5.00014 9.66667 4.33368 10 3.00056C9.5 3.66702 8.91667 3.91702 8.25 3.75056C7.86979 3.65556 7.59792 3.37952 7.29688 3.0741C6.80667 2.5766 6.23917 2.00098 5 2.00098ZM2.5 5.00014C1.16667 5.00014 0.333333 5.6666 0 6.99973C0.5 6.33327 1.08333 6.08327 1.75 6.24993C2.13021 6.34514 2.40208 6.62098 2.70312 6.92618C3.19333 7.42368 3.76083 7.99952 5 7.99952C6.33333 7.99952 7.16667 7.33306 7.5 5.99993C7 6.66639 6.41667 6.91639 5.75 6.74973C5.36958 6.65473 5.09771 6.37868 4.79667 6.07348C4.30667 5.57598 3.73937 5.00014 2.5 5.00014Z" fill="#00ACC1"/>
</svg>
