<svg width="26" height="25" viewBox="0 0 26 25" fill="none" xmlns="http://www.w3.org/2000/svg">
<path d="M8.92535 25C9.32722 24.8294 9.6087 24.4352 9.6087 23.9763V20.9653C9.6087 20.8555 9.61774 20.7411 9.63187 20.6252C9.62396 20.6274 9.61661 20.6291 9.6087 20.6307C9.6087 20.6307 7.91304 20.6307 7.57391 20.6307C6.72609 20.6307 5.9913 20.2962 5.65217 19.6271C5.25652 18.9022 5.08696 17.6755 4.06956 17.0064C3.9 16.8949 4.01304 16.7276 4.35217 16.7276C4.6913 16.7834 5.42609 17.2295 5.87826 17.8428C6.38696 18.4562 6.89565 18.958 7.8 18.958C9.2057 18.958 9.95913 18.8883 10.4124 18.6485C10.9403 17.874 11.6712 17.2852 12.4348 17.2852V17.2713C9.23113 17.1698 7.18448 16.1193 6.23152 14.4973C4.16 14.5207 2.35639 14.7231 1.32713 14.8915C1.29435 14.7092 1.26609 14.5257 1.24178 14.3412C2.25748 14.1761 3.97913 13.9804 5.95852 13.943C5.89522 13.7891 5.84039 13.6313 5.79404 13.4696C3.80957 13.3704 2.09696 13.4479 1.16661 13.5237C1.1553 13.3386 1.14004 13.1541 1.13778 12.9667C2.06983 12.8914 3.73609 12.8162 5.6697 12.9048C5.62504 12.626 5.59622 12.3411 5.59622 12.0445C5.59622 11.0966 5.93535 10.0929 6.55709 9.25651C6.27448 8.30861 5.87883 6.3013 6.67013 5.57643C8.19622 5.57643 9.27013 6.3013 9.77883 6.74737C10.7391 6.3565 11.813 6.13346 13 6.13346C14.187 6.13346 15.2609 6.3565 16.1652 6.74681C16.6739 6.30074 17.7478 5.57588 19.2739 5.57588C20.1217 6.3565 19.6696 8.36382 19.387 9.25596C20.0087 10.0923 20.3478 11.0402 20.2913 12.0439C20.2913 12.3138 20.2659 12.5742 20.2291 12.8295C22.2068 12.7336 23.9183 12.8106 24.8662 12.8864C24.865 13.0743 24.8475 13.2578 24.8373 13.4434C23.8929 13.3665 22.1384 13.2873 20.1127 13.3938C20.0624 13.5812 20.0013 13.7635 19.929 13.9402C21.9333 13.9659 23.6962 14.1572 24.7605 14.3244C24.7362 14.5095 24.7079 14.693 24.6751 14.8748C23.5944 14.7041 21.7524 14.5045 19.6566 14.4945C18.7155 16.0992 16.7061 17.1458 13.5652 17.2679V17.2852C15.0348 17.2852 16.3913 19.4598 16.3913 20.9653V23.9763C16.3913 24.4352 16.6728 24.8294 17.0747 25C22.2526 23.3094 26 18.4918 26 12.8245C26 5.75319 20.1687 0 13 0C5.83135 0 0 5.75319 0 12.8245C0 18.4918 3.74739 23.3094 8.92535 25Z" fill="white"/>
</svg>
